<?xml version="1.0" encoding="utf-8"?>
<!-- Generator: Adobe Illustrator 24.0.1, SVG Export Plug-In . SVG Version: 6.00 Build 0)  -->
<svg version="1.1" id="Layer_1" xmlns="http://www.w3.org/2000/svg" xmlns:xlink="http://www.w3.org/1999/xlink" x="0px" y="0px"
	 viewBox="0 0 321.63 85.26" style="enable-background:new 0 0 321.63 85.26;" xml:space="preserve">
<style type="text/css">
	.st0{fill:#FFFFFF;}
</style>
<g>
	<g>
		<path class="st0" d="M42.06,0C18.83,0,0,19.09,0,42.63c0,23.54,18.83,42.63,42.06,42.63s42.06-19.09,42.06-42.63
			C84.13,19.09,65.3,0,42.06,0 M53.79,44.42l8.32,11.13c0.69,0.92,0.73,2.46,0.09,3.42l-0.42,0.62c-0.64,0.95-1.93,2.28-2.86,2.95
			l-1,0.71c-0.93,0.67-2.44,0.64-3.35-0.06l-10.98-8.44c-0.91-0.7-2.4-0.7-3.3,0L29.29,63.2c-0.91,0.7-2.42,0.73-3.36,0.08
			l-0.73-0.5c-0.94-0.66-2.24-1.97-2.9-2.92l-0.63-0.91c-0.65-0.95-0.63-2.48,0.06-3.4l8.33-11.13c0.69-0.92,0.69-2.43,0-3.35
			l-8.33-11.13c-0.69-0.92-0.71-2.45-0.05-3.39l0.71-1.01c0.66-0.94,1.97-2.25,2.91-2.9l0.62-0.43c0.94-0.65,2.46-0.61,3.37,0.09
			l10.98,8.44c0.91,0.7,2.4,0.7,3.3,0l10.98-8.44c0.91-0.7,2.45-0.79,3.44-0.2l1.15,0.69c0.98,0.59,2.24,1.9,2.8,2.91l0.4,0.74
			c0.55,1.01,0.44,2.59-0.25,3.51l-8.32,11.13C53.1,41.99,53.1,43.5,53.79,44.42"/>
	</g>
	<g>
		<path d="M129.9,22.85h-22.52c-2.47,0-4.42,1.98-4.42,4.48v32.14c0,2.5,1.95,4.48,4.42,4.48c2.47,0,4.42-1.98,4.42-4.48V47.83
			h15.51c2.24,0,4.02-1.8,4.02-4.08c0-2.27-1.78-4.08-4.02-4.08H111.8V31h18.1c2.24,0,4.02-1.8,4.02-4.08S132.14,22.85,129.9,22.85z
			"/>
		<path d="M145.47,22.5c-2.47,0-4.42,1.98-4.42,4.48v32.49c0,2.5,1.95,4.48,4.42,4.48c2.47,0,4.42-1.98,4.42-4.48V26.98
			C149.9,24.48,147.95,22.5,145.47,22.5z"/>
		<path d="M197.58,24.24c-1.76-1.78-4.62-1.78-6.38,0l-12.6,12.77L166,24.24c-1.76-1.78-4.61-1.78-6.38,0
			c-1.76,1.78-1.76,4.68,0,6.46l12.6,12.77l-12.6,12.77c-1.76,1.78-1.76,4.68,0,6.46c0.88,0.89,2.03,1.34,3.19,1.34
			c1.15,0,2.31-0.45,3.19-1.34l12.6-12.77l12.6,12.77c0.88,0.89,2.03,1.34,3.19,1.34c1.15,0,2.31-0.45,3.19-1.34
			c1.76-1.79,1.76-4.68,0-6.46l-12.6-12.77l12.6-12.77C199.34,28.92,199.34,26.02,197.58,24.24z"/>
	</g>
	<g>
		<path class="st0" d="M209.66,25.77c0-1.26,1.03-2.29,2.23-2.29h14.8c4.57,0,8.17,1.31,10.46,3.54c1.66,1.71,2.57,3.83,2.57,6.4
			v0.11c0,5.2-3.2,7.89-6.34,9.26c4.74,1.43,8.57,4.17,8.57,9.66v0.12c0,6.86-5.77,10.92-14.52,10.92h-15.55
			c-1.2,0-2.23-1.03-2.23-2.29V25.77z M225.95,41.32c5.43,0,9.2-2.46,9.2-7.15v-0.11c0-3.94-3.14-6.52-8.86-6.52h-12.17v13.78
			H225.95z M227.55,59.44c6.06,0,9.83-2.69,9.83-7.14v-0.11c0-4.34-3.66-6.86-10.63-6.86h-12.63v14.12H227.55z"/>
		<path class="st0" d="M247.16,43.6v-0.11c0-11.03,8.29-20.69,20.46-20.69c12.17,0,20.35,9.55,20.35,20.58v0.11
			c0,11.03-8.29,20.69-20.46,20.69C255.33,64.18,247.16,54.64,247.16,43.6z M283.28,43.6v-0.11c0-9.09-6.63-16.52-15.78-16.52
			s-15.66,7.32-15.66,16.4v0.11c0,9.09,6.63,16.52,15.78,16.52S283.28,52.69,283.28,43.6z"/>
		<path class="st0" d="M303.34,27.66h-11.6c-1.14,0-2.12-0.91-2.12-2.06c0-1.14,0.97-2.12,2.12-2.12h27.78
			c1.14,0,2.12,0.97,2.12,2.12c0,1.14-0.97,2.06-2.12,2.06h-11.6V61.5c0,1.26-1.03,2.29-2.29,2.29c-1.26,0-2.29-1.03-2.29-2.29
			V27.66z"/>
	</g>
</g>
</svg>
